<svg width="64" height="64" viewBox="0 0 80 80" xmlns="http://www.w3.org/2000/svg">
  <style>
    .icon-bg { fill: #D2F96F; }
    .icon-path { fill: #000000; }
  </style>

  <!-- Centered at 40,40 -->
  <g transform="translate(40, 40)">
    <!-- Rotated Diamond Background -->
    <g transform="rotate(45)">
      <rect x="-24" y="-24" width="48" height="48" rx="10" class="icon-bg" />
    </g>
    
    <!-- Gamepad Icon -->
    <!-- Centered relative to 40,40. Icon is 24x24 standard.
         Top-left of icon should be at -12, -12
    -->
    <g transform="translate(-12, -12)">
       <path class="icon-path" d="M20,6H4C2.9,6,2,6.9,2,8v8c0,1.1,0.9,2,2,2h16c1.1,0,2-0.9,2-2V8C22,6.9,21.1,6,20,6z M7.5,15H5v-1.5h2.5V15z M7.5,12H5v-1.5h2.5V12z M10,13.5H7.5V12H10V13.5z M13.5,10.5H11V9h2.5V10.5z M16.5,15H14v-2h2.5V15z M19.5,12h-2.5v-2h2.5V12z"/>
    </g>
  </g>
</svg>
