<svg width="300" height="80" viewBox="0 0 300 80" xmlns="http://www.w3.org/2000/svg">
  <!-- Styles -->
  <style>
    .text { font-family: 'Inter', system-ui, sans-serif; font-weight: 700; font-size: 32px; fill: white; letter-spacing: -0.5px; }
    .icon-bg { fill: #D2F96F; filter: drop-shadow(0 0 8px rgba(210, 249, 111, 0.4)); }
    .icon-path { fill: #000000; }
  </style>

  <!-- Container Group -->
  <g transform="translate(40, 40)">
    <!-- Rotated Diamond Background -->
    <g transform="rotate(45)">
      <rect x="-24" y="-24" width="48" height="48" rx="10" class="icon-bg" />
    </g>
    
    <!-- Gamepad Icon (Upright) -->
    <!-- Path approximated from Material Icons 'sports_esports' -->
    <g transform="translate(-12, -12) scale(1)">
       <path class="icon-path" d="M21.58,6H2.42C1.1,6,0,7.1,0,8.42v8.17c0,1.32,1.1,2.42,2.42,2.42h19.17c1.32,0,2.42-1.1,2.42-2.42V8.42C24,7.1,22.9,6,21.58,6z M6,13H4v-2h2V13z M10,13H8v-2h2V13z M14,13h-2v-2h2V13z M13,9h-2V7h2V9z M17,13h-2v-2h2V13z M22,13h-2v-2h2V13z" transform="scale(1) translate(0, 1)"/>
       <!-- Better path for sports_esports (generic gamepad shape) -->
       <path class="icon-path" d="M21.5,6H2.5C1.12,6,0,7.12,0,8.5v7C0,16.88,1.12,18,2.5,18H21.5c1.38,0,2.5-1.12,2.5-2.5v-7C24,7.12,22.88,6,21.5,6z M6,15H4v-2h2V15z M8,13H6v-2h2V13z M10,15H8v-2h2V15z M13,10h-2V8h2V10z M16.5,15h-2v-2h2V15z M19.5,13h-2v-2h2V13z" display="none"/>
       <!-- Simple Gamepad Path -->
       <path class="icon-path" d="M20,6H4C2.9,6,2,6.9,2,8v8c0,1.1,0.9,2,2,2h16c1.1,0,2-0.9,2-2V8C22,6.9,21.1,6,20,6z M7.5,15H5v-1.5h2.5V15z M7.5,12H5v-1.5h2.5V12z M10,13.5H7.5V12H10V13.5z M13.5,10.5H11V9h2.5V10.5z M16.5,15H14v-2h2.5V15z M19.5,12h-2.5v-2h2.5V12z"/>
    </g>
  </g>

  <!-- Text -->
  <text x="80" y="52" class="text">MetaCoach</text>
  <text x="80" y="52" class="text" font-family="'Courier New', monospace" font-size="20" fill="#D2F96F" opacity="0" dy="24">Tactical Intelligence</text>
</svg>
